<svg xmlns="http://www.w3.org/2000/svg" xmlns:xlink="http://www.w3.org/1999/xlink" width="711.83" height="88.27" viewBox="0 0 711.83 88.27"><defs><linearGradient id="a" x1="75.35" y1="241.11" x2="69.89" y2="171.14" gradientTransform="translate(0 -171.24)" gradientUnits="userSpaceOnUse"><stop offset="0" stop-color="#50a000"/><stop offset="1" stop-color="#96dc32"/></linearGradient><linearGradient id="b" x1="9.04" y1="226.94" x2="72.09" y2="257.92" xlink:href="#a"/><linearGradient id="c" x1="45.13" y1="169.53" x2="3.59" y2="228.94" xlink:href="#a"/></defs><path d="M640.87 22.07H578v10.48h25.49V66.2h11.92V32.55h25.49zm-83.64 0h-40.72a11.09 11.09 0 0 0-10.37 11V66.2h11.7V53.85h38.62V66.2h11.7V33.1a10.84 10.84 0 0 0-10.65-11h-.28zM518 43.48v-8.94a2.21 2.21 0 0 1 2.21-2.21h34.21a2.21 2.21 0 0 1 2.21 2.21v8.94zM300 32.45h48.11V22.07h-51a11 11 0 0 0-11 11v22.1a11 11 0 0 0 11 11h51V55.83H300a2.21 2.21 0 0 1-2.21-2.21v-19a2.21 2.21 0 0 1 2.21-2.18z" fill="#96dc32"/><path d="M114.64 22.08h11.7v44.14h-11.7zm148.63 0h-40.06a11 11 0 0 0-11 11v22.09a11 11 0 0 0 11 11h40.06a11 11 0 0 0 11-11V33.1a11 11 0 0 0-11-11.03zm-.66 31.56a2.21 2.21 0 0 1-2.21 2.21h-34.21a2.21 2.21 0 0 1-2.19-2.22v-19a2.21 2.21 0 0 1 2.21-2.21h34.19a2.21 2.21 0 0 1 2.21 2.21z" fill="#1e1e1e"/><path d="M80.43 38.07L68.51 70.73l12-2.1L92.46 36 62.23 0 50.31 2.1z" fill="url(#a)"/><path d="M68.52 70.73L34.31 76.8l-22.4-26.6-4.08 11.48 22.29 26.59 46.23-8.17 4.19-11.48-12 2.1z" fill="url(#b)"/><path d="M23.83 17.54l34.32-6.07-7.83-9.38L16 8.16 0 52.3l7.83 9.38z" fill="url(#c)"/><path d="M206.12 16.55h-15l-20.2 20.19-20.2-20.19H135.5l27.81 27.7-27.59 27.48h15l20.08-20 20 20h15.34l-27.7-27.59z" fill="#1e1e1e"/><path d="M412.79 53.63a11 11 0 0 0 9.27-10.37V33a11 11 0 0 0-11-11h-39.97a11 11 0 0 0-11 11v33.1h11.7V53.85h26.7l9.82 12.36h13.79l-10.18-12.47a2.18 2.18 0 0 0 .88-.11zm-41.05-19a2.21 2.21 0 0 1 2.26-2.19h34.21a2.21 2.21 0 0 1 2.21 2.21v6.73a2 2 0 0 1-2 2h-36.67zm75.37-2.32h48.11V22.07h-51a11 11 0 0 0-11 11v22.1a11 11 0 0 0 11 11h51V55.94h-48.11a2.21 2.21 0 0 1-2.21-2.1V49.1l47.23.11v-9.93l-47.23-.11v-4.52a2.21 2.21 0 0 1 2.1-2.32zm216.5 0h48.11V22.07h-51a11 11 0 0 0-11 11v22.1a11 11 0 0 0 11 11h51.09V55.94h-48.09a2.21 2.21 0 0 1-2.21-2.1V49.1l47.23.11v-9.93l-47.23-.11v-4.52a2.09 2.09 0 0 1 1.85-2.31z" fill="#96dc32"/></svg>