<svg xmlns:rdf="http://www.w3.org/1999/02/22-rdf-syntax-ns#" xmlns="http://www.w3.org/2000/svg" enable-background="new 0 0 595.279 124.29" xml:space="preserve" viewBox="0 0 354.77268 124.29" version="1.1" y="0px" x="0px" xmlns:cc="http://creativecommons.org/ns#" xmlns:dc="http://purl.org/dc/elements/1.1/"><title>kiwi logo</title><polygon points="146.79 74.043 171.28 43.614 188.25 43.614 165.62 70.545 190.53 109.71 173.7 109.71 156.74 81.04 146.37 92.877 146.37 109.71 131.18 109.71 131.18 14.676 146.37 14.676 146.37 74.043" fill="#7e9642"/><g fill="#7e9642"><path d="m199.7 23.287c-0.459-5.275 3.444-9.925 8.721-10.384 5.275-0.459 9.925 3.445 10.385 8.721 0.459 5.275-3.445 9.925-8.721 10.384-0.273 0.024-0.547 0.036-0.82 0.036-4.89 0.379-9.16-3.278-9.538-8.167-0.01-0.197-0.02-0.394-0.02-0.59m1.76 20.327h15.483v66.045h-15.509l0.03-66.047-0.004 0.002z"/><path d="m230.1 43.614h15.605l7.949 34.245c1.347 6.335 2.301 12.524 3.498 18.981h0.538c1.224-6.457 2.446-12.793 4.184-18.981l8.609-34.245h14.14l8.757 34.245c1.614 6.335 2.96 12.524 4.452 18.981h0.587c1.223-6.457 2.299-12.646 3.498-18.981l7.948-34.245h14.53l-16.829 66.045h-18.441l-7.83-30.775c-1.468-6.188-2.446-12.229-4.036-19.25h-0.538c-1.223 6.997-2.446 13.185-3.913 19.374l-7.534 30.699h-17.76l-17.42-66.097 0.006 0.004z"/><path d="m335.63 23.287c-0.459-5.275 3.444-9.925 8.722-10.384 5.275-0.459 9.925 3.445 10.384 8.721 0.459 5.275-3.445 9.925-8.721 10.384-0.272 0.024-0.546 0.036-0.82 0.036-4.889 0.379-9.159-3.278-9.538-8.167-0.01-0.197-0.02-0.394-0.02-0.59m1.76 20.327h15.483v66.045h-15.483v-66.047 0.002z"/></g><polygon points="107.87 93.219 53.936 124.29 53.936 62.008" fill="#607133"/><polygon points="53.936 62.008 107.87 31.065 107.87 93.219" fill="#b7d058"/><g fill="#2f2e2d"><path d="m78.569 60.711s10.322 4.747 10.004-0.611c-0.318-5.356-10.004 0.611-10.004 0.611"/><path d="m72.795 77.737s3.963 10.641 7.51 6.629-7.51-6.629-7.51-6.629"/><path d="m56.7 85.613s-4.745 10.323 0.61 10.005c5.359-0.319-0.61-10.005-0.61-10.005"/><path d="m77.247 70.154s7.606 8.438 9.418 3.399c1.81-5.038-9.418-3.399-9.418-3.399"/><path d="m65.213 83.459s-0.612 11.351 4.256 9.076c4.867-2.275-4.256-9.076-4.256-9.076"/><path d="m76.342 52.2s6.825-9.1 9.075-4.257c2.251 4.844-9.075 4.257-9.075 4.257"/></g><polygon points="41.681 54.939 53.986 47.845 66.289 54.939 66.289 69.151 53.986 76.245 41.681 69.151" fill="#ebeb96"/><polygon points="53.936 62.008 0 31.065 0 93.219 53.936 124.29" fill="#2f2e2d"/><polygon points="107.87 31.065 53.936 0 0 31.065 53.936 62.008" fill="#585857"/></svg>
